<svg xmlns="http://www.w3.org/2000/svg" width="43" height="50" viewBox="0 0 43 50">
    <g fill="none" fill-rule="evenodd">
        <g fill-rule="nonzero" stroke-linecap="round" stroke-linejoin="round" stroke-width="2">
            <path fill="#6A462F" stroke="#6A462F" d="M41.051 28.878c0 10.493-8.121 19.085-18.422 19.834 14.832-8.66 16.617-23.75 4.435-37.94l-.144-.172c-3.14-3.629 1.382-9.408 1.382-9.408h1.91a3.122 3.122 0 0 1 3.111 3.11v.02c0 .71-.25 1.372-.662 1.9a3.051 3.051 0 0 1-1.239.96h-.01c-1.122 1.114-2.111 3.005.769 5.136.029.02.077.058.105.077.106.067.23.144.336.23a19.554 19.554 0 0 1 3.792 3.495 18.898 18.898 0 0 1 2.583 3.965c.038.057.067.125.105.201.144.317.279.624.404.941.096.26.201.519.288.768.105.269.182.528.259.778 0 .01.01.019.01.029.067.24.143.49.21.73.01.038.03.086.039.124.029.115.058.211.077.326.048.144.086.298.115.452.029.153.067.288.096.441.029.115.058.25.086.375 0 .01 0 .038.01.048.048.278.096.537.134.787.048.345.087.662.125.95.02.202.039.394.048.557.058.806.048 1.286.048 1.286z"/>
            <path fill="#A57939" stroke="#A57939" d="M22.629 48.712c-.163.02-.327.029-.48.029a17 17 0 0 1-.989.029c-10.982 0-19.891-8.91-19.891-19.892v-.124c0-.27.01-.528.029-.797 0-.115.01-.23.019-.365.01-.163.029-.355.048-.557.029-.25.067-.528.115-.825.02-.144.048-.298.067-.461.163-.912.403-1.997.768-3.159a22.357 22.357 0 0 1 .902-2.304.993.993 0 0 1 .106-.201c.643-1.373 2.583-3.965 2.583-3.965a19.554 19.554 0 0 1 3.792-3.494c.105-.087.23-.164.336-.23.028-.02.076-.058.105-.078 2.832-2.102 1.92-3.974.816-5.088a3.038 3.038 0 0 1-1.401-1.065c-.02-.01-.03-.02-.03-.02a3.094 3.094 0 0 1-.594-1.823v-.02a3.116 3.116 0 0 1 3.11-3.11h16.262s-4.521 5.78-1.382 9.408l.144.173c12.182 14.189 10.397 29.28-4.435 37.939z"/>
        </g>
        <path fill="#000" fill-rule="nonzero" d="M2.427 23.866c.087-.44.19-.875.311-1.3-.123.453-.225.887-.311 1.3zM3.002 21.669c-.101.294-.178.597-.264.897.08-.294.166-.592.264-.897zM2.262 24.712c.047-.267.103-.552.165-.846-.056.281-.123.558-.165.846zM2.022 26.834c-.019.259-.028.508-.028.768 0-.144 0-.404.028-.768z"/>
        <path stroke="#000" stroke-linecap="round" stroke-width="2" d="M27.263 9.48h-12.32"/>
        <path stroke="#000" stroke-linecap="round" stroke-linejoin="round" stroke-width="2" d="M41.05 28.88c0 10.98-8.906 19.887-19.885 19.887-10.99 0-19.896-8.907-19.896-19.886v-.13c0-.269.01-.528.03-.797 0-.11.01-.23.02-.359.01-.169.03-.358.05-.558.03-.249.059-.528.109-.827.02-.149.05-.298.07-.458.159-.916.398-2.002.767-3.158.06-.19.13-.389.199-.588.21-.558.438-1.136.707-1.724.03-.07.06-.139.1-.199.647-1.375 2.58-3.965 2.58-3.965a19.77 19.77 0 0 1 3.796-3.497c.11-.08.23-.16.339-.23l.1-.07c2.84-2.101 1.923-3.974.817-5.09a2.977 2.977 0 0 1-1.395-1.066c-.02-.01-.03-.02-.03-.02a3.073 3.073 0 0 1-.598-1.823v-.02a3.119 3.119 0 0 1 3.109-3.109H30.21a3.119 3.119 0 0 1 3.109 3.109v.02c0 .707-.25 1.374-.658 1.902a3.074 3.074 0 0 1-1.235.957h-.01c-1.126 1.116-2.112 3.009.767 5.14l.1.07a19.773 19.773 0 0 1 4.135 3.726 19.51 19.51 0 0 1 2.58 3.966c.04.06.07.13.1.2a19.324 19.324 0 0 1 .697 1.713c.1.269.179.528.259.777 0 .01.01.02.01.03l.209.727c.01.04.03.09.04.13.03.11.06.209.08.319.04.149.08.298.109.458.03.15.07.289.1.438.03.12.06.25.08.379 0 .01 0 .03.01.04.05.279.099.538.139.787.05.349.09.667.12.956.02.2.04.389.05.558.059.807.049 1.286.049 1.286z"/>
        <path stroke="#000" stroke-linecap="round" stroke-linejoin="round" stroke-width="2" d="M24.223 25.343c-.261-1.015-1.388-1.778-2.74-1.778-1.543 0-2.795.997-2.795 2.227 0 1.229 1.252 2.226 2.796 2.226l-.057.008c1.544 0 2.796.996 2.796 2.226s-1.252 2.226-2.796 2.226c-1.351 0-2.478-.763-2.739-1.777M21.455 23.565v-2.122M21.455 34.6v-2.122M7.72 9.64s-5.76 0-5.76 5.76M2.92 7.72S1 7.72 1 5.8"/>
    </g>
</svg>
