<svg xmlns="http://www.w3.org/2000/svg" width="48" height="50" viewBox="0 0 48 50">
    <g fill="none" fill-rule="nonzero">
        <path fill="#9B9B9A" d="M1.222 46.92s-1.883-12.987 9.411-12.987c3.004 2.002 5.578 3.386 8.471 3.38h-.118c2.893.006 4.996-2.507 8-4.51 12.53 0 10.26 14.118 10.26 14.118"/>
        <path fill="#D0CFCE" d="M19.4 42.547l2.274 4.278L27.67 33.07l6.077 9.208-10.501 3.888"/>
        <path fill="#FFF" d="M21.183 45.875c-.562.974-4.604.974-5.166 0l-1.734-2.268-3.187-8.225 7.504 2.542 7.128-2.542-3.094 8.225-1.45 2.268z"/>
        <path fill="#D0CFCE" d="M46.804 46.575H32.23V27.938h14.373c.11 0 .2.09.2.2v18.437z"/>
        <path fill="#FFF" d="M43.876 48.905H30.127V31.068h10.12a3.628 3.628 0 0 1 3.629 3.628v14.21z"/>
        <path fill="#3F3F3F" d="M16.428 37.21s-1.135 5.667 2.172 5.667c3.307 0 2.172-5.668 2.172-5.668"/>
        <path fill="#3F3F3F" d="M17.898 43.181a.794.794 0 0 1 1.376 0l1.096 1.899 1.784 1.866h-7.136l1.784-1.866 1.096-1.899z"/>
        <path fill="#D0CFCE" d="M17.8 42.877l-2.274 3.053-5.338-12.155-3.724 7.985 8.901 4.17"/>
        <g fill="#3F3F3F">
            <path d="M10.705 9.212s9.54 7.49 9.893 2.295c0 0 5.021 3.582 8.487 3.583 6.055 0-.123-11.746-10.485-14.23C15.64.15 9.289-.792 9.289 5.057c0 0-7.17 3.982-1.245 11.811l.085-.313c.295-2.899 2.576-7.343 2.576-7.343z"/>
        </g>
        <g fill="#FADCBC">
            <path d="M10.663 9.499c-1.631 2.343-2.62 5.404-2.62 8.754 0 7.368 4.778 13.34 10.672 13.34 5.894 0 10.672-5.972 10.672-13.34 0-1.09-.105-2.15-.302-3.163-2.818-.292-5.648-1.56-8.487-3.583-.15 3.535-4.499 1.485-9.935-2.008z"/>
        </g>
        <g fill="#000">
            <path d="M7.956 16.67a16.977 16.977 0 0 0-.073 1.583c0 7.45 4.84 13.5 10.832 13.5 5.992 0 10.833-6.05 10.833-13.5 0-1.087-.103-2.157-.305-3.194a.161.161 0 0 0-.316.061c.198 1.018.299 2.067.299 3.133 0 7.285-4.715 13.179-10.51 13.179-5.797 0-10.511-5.894-10.511-13.179 0-.522.024-1.04.072-1.553a.161.161 0 1 0-.32-.03z"/>
            <path d="M24.362 16.973a1.883 1.883 0 1 1-3.766-.002 1.883 1.883 0 0 1 3.766.002M16.833 16.973a1.883 1.883 0 1 1-3.766-.002 1.883 1.883 0 0 1 3.766.002M18.715 26.387c-1.084 0-2.168-.27-3.244-.808a.941.941 0 1 1 .842-1.684c1.616.81 3.188.81 4.805 0a.942.942 0 0 1 .842 1.684c-1.077.538-2.16.808-3.245.808zM43.876 33.193c.089 0 .16.072.16.16v15.552a.161.161 0 0 1-.16.161H30.127a.161.161 0 0 1-.16-.16v-17.54c0-.09.071-.161.16-.161h11.13c.089 0 .161.072.161.16v1.828h2.458zm-.161.322h-2.458a.161.161 0 0 1-.161-.161v-1.827H30.288v17.217h13.427V33.515z"/>
            <path d="M46.935 28.268v17.378a.161.161 0 1 0 .322 0v-17.54a.161.161 0 0 0-.16-.16H33.142a.161.161 0 0 0 0 .322h13.792z"/>
            <path d="M41.16 31.494l2.618 1.988a.161.161 0 1 0 .195-.256l-2.619-1.989a.161.161 0 1 0-.194.257zM32.899 38.048h7.936c.09 0 .161-.224.161-.5s-.072-.5-.16-.5h-7.937c-.09 0-.161.224-.161.5s.072.5.16.5zM32.899 41.904h7.936c.09 0 .161-.224.161-.5 0-.277-.072-.5-.16-.5h-7.937c-.09 0-.161.223-.161.5 0 .276.072.5.16.5zM32.899 45.277h7.936c.09 0 .161-.224.161-.5s-.072-.5-.16-.5h-7.937c-.09 0-.161.224-.161.5s.072.5.16.5zM16.27 37.178a3.33 3.33 0 0 0-.03.169c-.022.134-.045.285-.065.451-.095.754-.128 1.53-.061 2.26.168 1.843.935 2.98 2.486 2.98 1.55 0 2.318-1.137 2.486-2.98.067-.73.034-1.506-.06-2.26a11.286 11.286 0 0 0-.096-.62.161.161 0 0 0-.316.063l.028.159c.022.13.044.277.064.438.092.733.124 1.488.06 2.19-.156 1.699-.823 2.687-2.166 2.687s-2.01-.988-2.165-2.687a10.32 10.32 0 0 1 .06-2.19 10.965 10.965 0 0 1 .091-.597.161.161 0 1 0-.316-.063zM26.955 43.736l-5.403 2.05a.161.161 0 0 0 .115.301l5.402-2.05a.161.161 0 0 0-.114-.301zM10.911 9.168l.302.228c.326.242.69.504 1.082.774 1.12.773 2.244 1.464 3.299 1.995 1.343.677 2.473 1.04 3.305 1.014.938-.028 1.46-.547 1.538-1.683a.161.161 0 0 1 .254-.12 7.136 7.136 0 0 0 .22.152 29.95 29.95 0 0 0 2.706 1.628c1 .53 1.972.966 2.886 1.274.962.325 1.83.499 2.582.499 1.369 0 2.105-.615 2.213-1.729.106-1.093-.408-2.605-1.435-4.206-2.35-3.663-6.623-6.856-11.3-7.978-2.121-.507-4.08-.695-5.695-.36-2.192.456-3.418 1.837-3.418 4.4a.161.161 0 0 1-.083.141 6.829 6.829 0 0 0-.544.362c-.412.305-.825.67-1.21 1.095-.984 1.087-1.617 2.37-1.734 3.848-.143 1.811.502 3.81 2.094 6 .137-1.282.648-2.929 1.405-4.766a40.048 40.048 0 0 1 1.189-2.608.16.16 0 0 1 .24-.041l.104.08zm-.16.312a39.728 39.728 0 0 0-1.074 2.378c-.754 1.829-1.26 3.464-1.387 4.713l-.005.026-.086.313a.161.161 0 0 1-.284.055c-1.782-2.355-2.513-4.52-2.357-6.489.123-1.555.788-2.902 1.817-4.038a8.568 8.568 0 0 1 1.674-1.424l.08-.05C9.158 2.3 10.492.821 12.801.342c1.673-.348 3.673-.157 5.836.361 4.76 1.142 9.103 4.386 11.496 8.117 1.063 1.657 1.598 3.233 1.484 4.411-.124 1.285-1.004 2.02-2.533 2.02-.791 0-1.693-.18-2.685-.515-.932-.315-1.92-.757-2.934-1.295a30.268 30.268 0 0 1-2.736-1.647c-.159 1.115-.797 1.676-1.821 1.707-.899.027-2.072-.35-3.46-1.048-1.07-.539-2.206-1.237-3.337-2.018a37.703 37.703 0 0 1-1.35-.977l-.012.022zm-2.782 7.058l.005-.026-.004.013v.013z"/>
            <path d="M18.525 37.316l.016.001h.077a10.137 10.137 0 0 0 .057 0c2.563-.03 4.877-1.042 8.426-3.408a.161.161 0 0 0-.179-.268c-3.534 2.356-5.808 3.344-8.322 3.354-2.514-.01-4.788-.998-8.322-3.354a.161.161 0 0 0-.09-.027c-5.015 0-7.898 2.343-9.095 6.231-.58 1.887-.692 3.878-.536 5.654a11.473 11.473 0 0 0 .06.536.161.161 0 1 0 .319-.049 11.153 11.153 0 0 1-.058-.515c-.153-1.738-.043-3.69.523-5.53 1.153-3.747 3.902-5.99 8.739-6.005 3.525 2.347 5.832 3.352 8.385 3.38z"/>
            <path d="M10.336 33.71a.161.161 0 0 0-.294-.003l-3.724 7.985a.161.161 0 0 0 .077.214l8.902 4.17a.16.16 0 0 0 .149-.006.161.161 0 0 0 .21-.043l2.273-3.054a.161.161 0 1 0-.259-.193l-2.107 2.832-5.227-11.902zm4.912 11.988l-8.57-4.016 3.506-7.516 5.064 11.532zM19.53 42.78a.161.161 0 0 0-.259.193l2.273 3.054c.074.099.227.081.277-.032l5.338-12.155a.161.161 0 0 0-.295-.13l-5.227 11.902-2.107-2.832z"/>
        </g>
    </g>
</svg>
